<?xml version="1.0" encoding="UTF-8" standalone="no"?>
<!DOCTYPE svg PUBLIC "-//W3C//DTD SVG 20010904//EN" "http://www.w3.org/TR/2001/REC-SVG-20010904/DTD/svg10.dtd">
<svg version="1.0" xmlns="http://www.w3.org/2000/svg" width="200.000000pt" height="123.000000pt" viewBox="0 0 200.000000 123.000000" preserveAspectRatio="xMidYMid meet">
<metadata>
Created by potrace 1.10, written by Peter Selinger 2001-2011
</metadata>
<g transform="translate(0.000000,123.000000) scale(0.100000,-0.100000)" fill="#000000" stroke="none">
<path d="M574 972 c-17 -2 -42 -14 -54 -27 -21 -23 -59 -144 -74 -240 l-6 -40 16 35 c20 40 20 44 22 87 1 19 11 41 25 54 12 12 16 19 10 15 -8 -4 -13 -1 -13 8 0 9 7 16 15 16 9 0 15 6 14 13 -4 20 23 67 38 67 9 0 11 -5 7 -12 -4 -7 3 -4 16 7 20 17 23 18 17 3 -7 -19 8 -25 18 -8 3 6 10 10 15 10 5 0 -1 -20 -14 -45 -26 -48 -40 -119 -61 -303 l-14 -117 4 130 c2 72 7 141 11 154 5 16 4 22 -4 18 -22 -15 -35 -141 -28 -293 9 -196 9 -194 23 -182 9 7 13 -1 18 -29 3 -21 13 -53 21 -71 14 -32 12 -52 -5 -52 -5 0 -12 10 -16 23 l-8 22 -4 -22 c-5 -25 -18 -30 -29 -12 -5 8 -9 8 -14 -1 -4 -7 -13 -9 -19 -6 -6 4 -9 11 -6 16 3 5 1 11 -5 15 -19 12 -2 21 39 20 27 0 41 4 41 12 0 9 -9 12 -25 9 -15 -3 -25 0 -25 7 0 7 -4 6 -10 -3 -7 -11 -10 -11 -10 -2 0 7 -4 11 -9 7 -5 -3 -13 0 -17 6 -4 8 -3 9 4 5 7 -4 12 -1 12 9 0 9 -5 13 -10 10 -33 -20 -63 194 -42 303 5 28 6 52 3 52 -13 0 -31 -81 -31 -137 0 -32 -5 -87 -11 -122 -7 -43 -7 -73 0 -93 6 -16 7 -26 2 -24 -4 3 -16 36 -26 73 -11 37 -21 61 -23 51 -2 -9 4 -42 13 -73 13 -43 23 -58 42 -66 36 -13 37 -12 18 17 -9 15 -12 23 -5 19 8 -5 10 -2 7 11 -9 32 -20 129 -13 124 3 -4 15 -53 27 -110 29 -142 35 -150 107 -150 78 0 85 6 66 59 -11 33 -15 97 -15 274 -1 247 12 351 52 429 10 20 19 39 19 42 0 6 -61 11 -96 8z"/>
<path d="M715 972 c-21 -4 -45 -28 -45 -45 0 -6 8 -3 18 6 10 10 21 14 24 11 4 -3 17 0 29 7 l23 12 -18 -28 c-17 -26 -17 -29 -2 -37 9 -5 14 -13 11 -18 -3 -5 -1 -11 5 -15 6 -3 10 4 10 17 0 33 11 68 21 68 5 0 6 -7 3 -15 -4 -11 -2 -13 9 -10 10 4 16 -2 20 -22 3 -15 1 -29 -4 -31 -5 -2 -5 -11 -1 -20 5 -9 9 -57 10 -107 1 -49 7 -94 13 -100 8 -7 9 22 5 100 -3 61 -5 124 -5 141 -1 60 -56 98 -126 86z"/>
<path d="M1286 962 c-3 -5 -1 -39 4 -78 12 -90 17 -294 8 -294 -5 0 -8 14 -8 30 0 17 -5 30 -10 30 -7 0 -8 38 -4 112 5 83 4 109 -4 104 -8 -5 -12 -44 -12 -116 0 -89 -3 -109 -16 -114 -9 -3 -100 -6 -203 -6 l-188 0 4 -25 c5 -24 6 -24 116 -24 73 0 107 3 97 9 -8 5 -22 7 -32 4 -9 -2 -19 0 -23 6 -4 6 12 10 44 10 43 0 50 -2 45 -17 -5 -17 -5 -17 6 0 14 21 49 22 56 2 4 -8 10 -15 15 -15 4 0 6 7 3 15 -4 8 -1 15 5 15 6 0 11 -7 11 -16 0 -8 5 -12 10 -9 6 3 10 -1 10 -10 0 -10 -5 -13 -12 -9 -7 5 -9 2 -6 -8 5 -12 0 -14 -20 -12 -15 2 -103 4 -196 5 -153 1 -171 0 -183 -17 -12 -16 -13 -16 -13 9 0 19 -5 27 -17 27 -14 0 -15 -2 -5 -9 10 -6 11 -17 4 -42 -10 -38 -8 -162 4 -180 6 -11 12 -37 16 -79 0 -8 0 -26 -1 -40 -2 -25 -2 -25 -18 -5 -15 20 -15 20 -11 0 3 -11 -1 -26 -8 -33 -11 -10 -13 20 -13 161 -1 96 2 176 5 179 3 3 7 70 9 149 2 79 6 151 10 161 4 11 0 18 -15 23 -28 9 -29 7 -36 -51 -3 -27 -10 -53 -16 -59 -8 -7 -9 -5 -3 5 6 12 5 13 -5 3 -29 -27 -58 -383 -32 -383 4 0 7 51 7 113 1 102 6 152 19 164 8 8 15 -77 20 -240 4 -153 4 -159 -15 -154 -13 4 -19 0 -20 -11 -1 -18 0 -20 -21 37 -6 18 -12 21 -20 13 -8 -8 -8 -27 2 -71 7 -34 15 -62 19 -62 29 -6 61 -7 61 -3 0 3 -7 12 -15 20 -9 10 -15 11 -15 4 0 -19 -22 -6 -31 18 -7 19 -5 22 16 24 14 0 30 1 37 2 6 1 13 -12 15 -29 5 -39 16 -49 43 -40 26 8 70 97 52 103 -8 2 -7 13 4 34 9 17 21 75 27 129 l10 99 188 0 c103 0 194 -3 203 -6 12 -5 16 -21 16 -73 0 -91 18 -248 30 -272 13 -24 29 -24 58 0 23 20 29 47 12 53 -6 2 -12 23 -14 48 -3 25 -9 72 -15 105 -12 67 -16 540 -5 568 5 15 9 16 15 5 7 -11 11 -10 19 2 5 8 10 12 11 8 2 -12 6 -27 9 -35 2 -5 4 -12 5 -18 1 -5 5 -17 8 -25 3 -8 8 -22 11 -30 3 -8 3 12 -1 45 -3 33 -7 63 -10 68 -6 10 -101 9 -107 -1z m-540 -149 c-2 -16 -7 -90 -11 -166 -8 -146 -18 -185 -23 -85 -4 74 17 278 29 278 4 0 7 -12 5 -27z m-54 -123 c-6 -41 -12 -38 -12 6 0 19 4 33 8 30 5 -3 7 -19 4 -36z m586 -115 c3 -45 -2 -51 -32 -39 -22 9 -21 70 1 83 23 13 26 9 31 -44z m-358 25 c0 -5 -7 -10 -15 -10 -8 0 -15 5 -15 10 0 6 7 10 15 10 8 0 15 -4 15 -10z m43 3 c-7 -2 -19 -2 -25 0 -7 3 -2 5 12 5 14 0 19 -2 13 -5z m37 3 c0 -3 -4 -8 -10 -11 -5 -3 -10 -1 -10 4 0 6 5 11 10 11 6 0 10 -2 10 -4z m311 -198 c2 -142 4 -178 13 -205 4 -12 3 -24 -2 -27 -21 -13 -32 25 -36 120 -2 54 -7 123 -11 152 -5 31 -4 52 2 52 5 0 8 -17 6 -37 -3 -38 -3 -38 7 -8 5 17 7 38 4 48 -3 9 -1 17 5 17 7 0 12 -40 12 -112z m-488 20 c-3 -46 -10 -90 -15 -98 -6 -10 -8 -3 -6 22 1 20 -2 41 -6 45 -5 4 -7 3 -3 -2 3 -6 1 -17 -5 -25 -7 -11 -8 -6 -4 19 3 18 6 53 6 77 0 37 3 44 20 44 18 0 19 -5 13 -82z"/>
<path d="M1431 956 c-8 -10 -9 -26 -2 -58 13 -55 30 -273 36 -434 2 -65 4 -126 4 -133 1 -11 4 -12 12 -4 39 39 12 499 -36 616 -11 25 10 21 24 -5 l12 -23 -5 23 c-4 22 8 30 19 12 3 -5 11 -10 16 -10 6 0 7 5 4 10 -3 6 -2 10 3 10 5 0 21 -23 36 -51 27 -52 34 -99 15 -99 -5 0 -7 -5 -4 -10 9 -15 13 -83 16 -255 2 -82 5 -124 6 -92 2 31 8 57 13 57 18 0 20 42 5 213 -15 179 -28 228 -60 241 -30 11 -102 6 -114 -8z"/>
<path d="M1510 925 c0 -5 5 -17 10 -25 5 -8 10 -10 10 -5 0 6 -5 17 -10 25 -5 8 -10 11 -10 5z"/>
<path d="M573 910 c-13 -5 -23 -11 -23 -14 0 -7 40 6 46 15 6 10 6 10 -23 -1z"/>
<path d="M443 888 c-20 -10 -61 -94 -50 -104 2 -3 12 13 21 36 9 22 18 40 21 40 5 0 -2 -26 -17 -57 -6 -12 -8 -33 -6 -47 3 -16 1 -23 -5 -19 -6 4 -8 -2 -5 -15 4 -12 2 -25 -3 -28 -5 -3 -7 -10 -4 -15 4 -5 1 -9 -4 -9 -6 0 -11 -5 -11 -11 0 -5 5 -7 10 -4 6 3 10 -3 10 -15 0 -12 -4 -18 -10 -15 -5 3 -10 -1 -10 -9 0 -23 29 -8 34 18 3 11 12 61 21 110 8 49 22 104 30 122 15 36 12 39 -22 22z"/>
<path d="M1609 893 c-1 -5 0 -12 1 -18 10 -44 30 -268 30 -343 0 -60 4 -91 10 -87 20 12 9 257 -16 374 -5 23 -4 32 4 27 5 -3 12 0 14 6 3 7 12 -7 21 -32 l17 -45 -5 40 c-4 25 -15 48 -31 63 -25 22 -43 28 -45 15z"/>
<path d="M730 879 c0 -5 5 -7 10 -4 6 3 10 8 10 11 0 2 -4 4 -10 4 -5 0 -10 -5 -10 -11z"/>
<path d="M354 850 c-43 -17 -86 -103 -109 -217 -6 -29 -11 -33 -37 -33 -27 0 -29 2 -17 17 13 15 12 15 -9 4 -17 -9 -22 -19 -20 -39 2 -22 9 -28 34 -30 30 -3 31 -5 37 -62 14 -132 40 -185 94 -196 l32 -6 -15 48 c-8 26 -12 62 -9 78 3 17 7 92 9 166 3 113 7 147 29 208 25 73 24 79 -19 62z m-24 -62 c-10 -24 -21 -61 -24 -83 l-6 -40 13 45 c13 42 44 110 50 110 2 0 -8 -42 -21 -92 -27 -105 -34 -311 -14 -383 10 -37 10 -38 -4 -20 -8 11 -18 33 -21 49 -3 16 -14 31 -23 33 -36 10 -43 203 -8 203 7 0 9 -18 5 -47 -3 -26 -2 -40 3 -32 4 7 10 33 13 55 4 38 3 41 -16 36 -17 -4 -19 -2 -13 14 4 10 15 42 23 69 15 50 50 125 58 125 2 0 -5 -19 -15 -42z m-97 -214 c-4 -13 -56 -11 -60 3 -3 8 7 11 29 9 18 -1 32 -7 31 -12z m61 -224 c5 -17 4 -20 -2 -10 -5 8 -13 26 -16 40 -5 17 -4 20 2 10 5 -8 13 -26 16 -40z"/>
<path d="M271 490 c0 -8 4 -22 9 -30 12 -18 12 -2 0 25 -6 13 -9 15 -9 5z"/>
<path d="M270 429 c0 -5 5 -7 10 -4 6 3 10 8 10 11 0 2 -4 4 -10 4 -5 0 -10 -5 -10 -11z"/>
<path d="M791 834 c0 -11 3 -14 6 -6 3 7 2 16 -1 19 -3 4 -6 -2 -5 -13z"/>
<path d="M1694 842 c14 -23 38 -211 38 -307 1 -81 3 -101 9 -75 14 58 11 211 -6 270 -18 66 -19 84 -3 74 7 -4 8 -3 4 5 -4 6 -12 9 -17 6 -5 -4 -9 -1 -9 4 0 23 30 9 46 -20 8 -17 11 -28 5 -25 -6 4 -11 0 -11 -8 0 -9 6 -13 14 -10 14 5 35 -59 37 -113 0 -24 1 -25 8 -8 7 16 11 9 20 -33 13 -64 14 -72 2 -72 -6 0 -12 15 -14 33 -2 17 -3 2 -2 -35 2 -40 -2 -68 -7 -68 -6 0 -8 -9 -5 -20 7 -29 -23 -110 -42 -110 -4 0 -13 10 -19 23 -11 22 -11 22 -11 -5 -1 -14 -4 -34 -8 -44 -4 -11 -3 -15 4 -11 6 4 13 2 15 -5 7 -19 36 -1 58 34 11 18 22 53 25 78 4 25 9 52 13 60 5 14 7 24 11 62 1 12 10 16 39 15 33 -2 37 1 40 24 2 16 -5 32 -19 45 -22 19 -22 19 -10 -3 15 -30 14 -43 -5 -36 -9 3 -20 0 -24 -8 -7 -11 -10 -9 -16 6 -5 12 -3 20 5 23 9 3 8 9 -4 22 -8 9 -24 46 -34 81 -27 91 -37 115 -61 139 -19 19 -77 30 -66 12z"/>
<path d="M1395 758 c1 -29 3 -116 5 -193 2 -79 5 -113 7 -77 3 46 8 62 19 62 15 0 15 -2 -2 198 -4 40 -10 62 -18 62 -9 0 -12 -16 -11 -52z"/>
<path d="M1545 680 c4 -115 4 -122 -9 -90 -13 33 -14 25 -14 -110 0 -87 3 -135 8 -120 4 14 8 38 9 53 1 16 5 26 11 22 13 -8 13 273 0 330 -6 28 -8 2 -5 -85z"/>
<path d="M1650 793 c0 -5 3 -13 7 -17 4 -3 8 -28 9 -54 11 -205 22 -273 26 -151 2 72 1 86 -5 114 -2 11 0 30 4 43 5 14 5 22 -2 22 -6 0 -8 3 -6 8 3 4 -4 16 -14 26 -11 11 -19 15 -19 9z"/>
<path d="M1360 775 c-1 -11 -2 -23 -1 -28 10 -61 11 -131 3 -136 -10 -6 -14 -83 -13 -210 1 -46 3 -52 16 -41 12 10 15 42 14 174 -1 144 -12 293 -19 241z m7 -227 c-3 -8 -6 -5 -6 6 -1 11 2 17 5 13 3 -3 4 -12 1 -19z"/>
<path d="M370 713 c-6 -32 -14 -67 -16 -78 -4 -16 -3 -17 5 -5 10 17 33 131 27 137 -2 3 -9 -22 -16 -54z"/>
<path d="M512 725 c0 -16 2 -22 5 -12 2 9 2 23 0 30 -3 6 -5 -1 -5 -18z"/>
<path d="M1330 719 c0 -13 5 -31 10 -39 7 -11 9 -6 7 18 -4 39 -17 55 -17 21z"/>
<path d="M477 714 c-3 -3 -3 -13 0 -22 4 -9 2 -13 -4 -9 -6 4 -10 -3 -10 -18 0 -14 3 -25 8 -25 5 0 8 3 7 8 -1 4 2 20 7 35 7 28 4 43 -8 31z"/>
<path d="M772 690 c0 -19 2 -27 5 -17 2 9 2 25 0 35 -3 9 -5 1 -5 -18z"/>
<path d="M795 680 c-4 -25 -12 -40 -21 -40 -21 0 -17 -17 6 -23 12 -3 20 -14 21 -29 1 -16 4 -11 12 17 7 27 7 40 -1 43 -6 2 -8 17 -5 38 3 19 3 34 0 34 -3 0 -8 -18 -12 -40z"/>
<path d="M1282 690 c0 -14 2 -19 5 -12 2 6 2 18 0 25 -3 6 -5 1 -5 -13z"/>
<path d="M1770 655 c5 -13 7 -34 4 -47 -9 -43 -17 -163 -10 -157 9 8 16 56 22 145 4 58 2 72 -10 77 -12 5 -13 2 -6 -18z"/>
<path d="M636 655 c-9 -26 -7 -32 5 -12 6 10 9 21 6 23 -2 3 -7 -2 -11 -11z"/>
<path d="M1340 640 c0 -5 5 -10 11 -10 5 0 7 5 4 10 -3 6 -8 10 -11 10 -2 0 -4 -4 -4 -10z"/>
<path d="M486 625 c-3 -9 -5 -38 -5 -63 l1 -47 9 59 c9 60 7 81 -5 51z"/>
<path d="M371 493 c0 -57 2 -103 7 -103 4 0 6 37 4 83 -4 125 -9 134 -11 20z"/>
<path d="M1431 524 c0 -11 3 -14 6 -6 3 7 2 16 -1 19 -3 4 -6 -2 -5 -13z"/>
<path d="M480 474 c0 -12 7 -24 15 -28 19 -7 19 5 0 30 -14 19 -14 19 -15 -2z"/>
<path d="M1645 373 c-3 -32 -9 -70 -11 -85 -4 -18 -1 -28 6 -28 10 0 9 -4 0 -15 -9 -11 -9 -15 -1 -15 6 0 14 7 18 16 4 12 8 12 13 3 6 -8 12 -5 21 12 15 28 29 120 17 113 -4 -3 -8 -15 -8 -28 0 -20 -27 -56 -42 -56 -2 0 -3 32 -1 70 2 39 1 70 -1 70 -3 0 -7 -26 -11 -57z"/>
<path d="M482 400 c0 -14 2 -19 5 -12 2 6 2 18 0 25 -3 6 -5 1 -5 -13z"/>
<path d="M1402 390 c0 -14 2 -19 5 -12 2 6 2 18 0 25 -3 6 -5 1 -5 -13z"/>
<path d="M381 364 c0 -11 3 -14 6 -6 3 7 2 16 -1 19 -3 4 -6 -2 -5 -13z"/>
<path d="M480 350 c0 -11 -4 -20 -10 -20 -5 0 -10 -5 -10 -12 0 -6 9 -3 20 7 21 19 27 45 10 45 -5 0 -10 -9 -10 -20z"/>
<path d="M1616 352 c-2 -4 -7 -25 -11 -47 -9 -48 -30 -91 -47 -97 -18 -7 -38 1 -38 16 0 7 -7 13 -15 13 -13 0 -19 -21 -18 -64 1 -7 -8 -13 -18 -13 -21 0 -23 4 -10 28 4 9 11 37 15 62 6 44 6 44 -7 15 -28 -62 -35 -93 -24 -104 16 -16 45 -13 55 5 7 12 17 15 36 10 16 -4 24 -11 20 -18 -4 -6 -1 -9 7 -6 25 8 49 64 55 124 3 33 7 65 9 72 5 13 -1 16 -9 4z"/>
<path d="M627 335 c-4 -8 -3 -16 1 -19 4 -3 9 4 9 15 2 23 -3 25 -10 4z"/>
<path d="M495 319 c-4 -6 -5 -12 -2 -15 2 -3 7 2 10 11 7 17 1 20 -8 4z"/>
<path d="M667 323 c-10 -10 -8 -23 4 -23 5 0 8 4 5 9 -4 5 0 12 6 14 7 3 8 6 2 6 -6 1 -14 -2 -17 -6z"/>
<path d="M1392 218 c-20 -20 -14 -40 11 -36 14 2 23 11 25 26 4 24 -16 30 -36 10z"/>
<path d="M1386 161 c-12 -5 -16 -10 -9 -14 13 -8 43 2 43 14 0 10 -8 10 -34 0z"/>
</g>
</svg>